<svg width="127" height="15" viewBox="0 0 127 15" fill="none" xmlns="http://www.w3.org/2000/svg">
<path d="M8.24 14.15C7.08 14.15 5.77 14.05 4.31 13.85C3.51 13.75 2.96 13.54 2.66 13.22C2.36 12.9 2.23 12.38 2.27 11.66C2.41 9.68 2.74 7.24 3.26 4.34C3.78 1.42 4.41 -1.39 5.15 -4.09C5.29 -4.59 5.57 -4.94 5.99 -5.14C6.41 -5.34 6.96 -5.44 7.64 -5.44C8.86 -5.44 9.47 -5.1 9.47 -4.42C9.47 -4.14 9.41 -3.82 9.29 -3.46C8.77 -1.86 8.25 0.289999 7.73 2.99C7.21 5.67 6.84 8.23 6.62 10.67C7.22 10.73 7.9 10.76 8.66 10.76C12.16 10.76 14.77 9.7 16.49 7.58C18.23 5.46 19.1 2.63 19.1 -0.91C19.1 -3.29 18.42 -5.13 17.06 -6.43C15.7 -7.73 13.78 -8.38 11.3 -8.38C9.7 -8.38 8.11 -8.13 6.53 -7.63C4.97 -7.13 3.56 -6.47 2.3 -5.65C2.04 -5.47 1.76 -5.38 1.46 -5.38C1.12 -5.38 0.85 -5.52 0.65 -5.8C0.45 -6.1 0.35 -6.46 0.35 -6.88C0.35 -7.36 0.43 -7.75 0.59 -8.05C0.75 -8.37 1.02 -8.66 1.4 -8.92C2.78 -9.86 4.4 -10.57 6.26 -11.05C8.12 -11.55 9.91 -11.8 11.63 -11.8C14.07 -11.8 16.18 -11.37 17.96 -10.51C19.74 -9.67 21.11 -8.43 22.07 -6.79C23.03 -5.15 23.51 -3.17 23.51 -0.850001C23.51 2.17 22.91 4.81 21.71 7.07C20.51 9.31 18.76 11.05 16.46 12.29C14.16 13.53 11.42 14.15 8.24 14.15ZM29.1552 -1.96C28.3152 -1.96 27.6852 -2.15 27.2652 -2.53C26.8452 -2.93 26.6352 -3.48 26.6352 -4.18C26.6352 -4.88 26.9052 -5.46 27.4452 -5.92C28.0052 -6.4 28.6952 -6.64 29.5152 -6.64C30.2552 -6.64 30.8552 -6.46 31.3152 -6.1C31.7752 -5.74 32.0052 -5.23 32.0052 -4.57C32.0052 -3.77 31.7452 -3.13 31.2252 -2.65C30.7052 -2.19 30.0152 -1.96 29.1552 -1.96ZM28.9152 14.15C27.6152 14.15 26.6652 13.69 26.0652 12.77C25.4852 11.85 25.1952 10.63 25.1952 9.11C25.1952 8.21 25.3052 7.06 25.5252 5.66C25.7652 4.24 26.0652 2.92 26.4252 1.7C26.6052 1.06 26.8452 0.619999 27.1452 0.379999C27.4452 0.139999 27.9252 0.0199994 28.5852 0.0199994C29.6052 0.0199994 30.1152 0.359999 30.1152 1.04C30.1152 1.54 29.9252 2.7 29.5452 4.52C29.0652 6.72 28.8252 8.21 28.8252 8.99C28.8252 9.59 28.9052 10.05 29.0652 10.37C29.2252 10.69 29.4952 10.85 29.8752 10.85C30.2352 10.85 30.6852 10.6 31.2252 10.1C31.7652 9.6 32.4852 8.81 33.3852 7.73C33.6252 7.45 33.8952 7.31 34.1952 7.31C34.4552 7.31 34.6552 7.43 34.7952 7.67C34.9552 7.91 35.0352 8.24 35.0352 8.66C35.0352 9.46 34.8452 10.08 34.4652 10.52C32.4852 12.94 30.6352 14.15 28.9152 14.15ZM43.978 7.31C44.238 7.31 44.438 7.43 44.578 7.67C44.738 7.91 44.818 8.24 44.818 8.66C44.818 9.46 44.628 10.08 44.248 10.52C43.388 11.58 42.448 12.45 41.428 13.13C40.428 13.81 39.288 14.15 38.008 14.15C36.248 14.15 34.938 13.35 34.078 11.75C33.238 10.15 32.818 8.08 32.818 5.54C32.818 3.1 33.128 0.32 33.748 -2.8C34.388 -5.92 35.318 -8.6 36.538 -10.84C37.778 -13.08 39.248 -14.2 40.948 -14.2C41.908 -14.2 42.658 -13.75 43.198 -12.85C43.758 -11.97 44.038 -10.7 44.038 -9.04C44.038 -6.66 43.378 -3.9 42.058 -0.76C40.738 2.38 38.948 5.49 36.688 8.57C36.828 9.39 37.058 9.98 37.378 10.34C37.698 10.68 38.118 10.85 38.638 10.85C39.458 10.85 40.178 10.62 40.798 10.16C41.418 9.68 42.208 8.87 43.168 7.73C43.408 7.45 43.678 7.31 43.978 7.31ZM40.288 -11.23C39.828 -11.23 39.308 -10.4 38.728 -8.74C38.148 -7.08 37.638 -5.02 37.198 -2.56C36.758 -0.100001 36.518 2.26 36.478 4.52C37.898 2.18 39.028 -0.160001 39.868 -2.5C40.708 -4.86 41.128 -7.01 41.128 -8.95C41.128 -10.47 40.848 -11.23 40.288 -11.23ZM51.0631 9.77C51.2831 9.57 51.5031 9.47 51.7231 9.47C51.9631 9.47 52.1531 9.61 52.2931 9.89C52.4531 10.15 52.5331 10.47 52.5331 10.85C52.5331 11.69 52.2331 12.36 51.6331 12.86C50.5931 13.72 49.4131 14.15 48.0931 14.15C46.1931 14.15 44.8031 13.36 43.9231 11.78C43.0431 10.18 42.6031 8.1 42.6031 5.54C42.6031 3.1 42.9131 0.32 43.5331 -2.8C44.1731 -5.92 45.1031 -8.6 46.3231 -10.84C47.5631 -13.08 49.0331 -14.2 50.7331 -14.2C51.6931 -14.2 52.4431 -13.75 52.9831 -12.85C53.5431 -11.97 53.8231 -10.7 53.8231 -9.04C53.8231 -6.66 53.1631 -3.9 51.8431 -0.76C50.5431 2.38 48.7631 5.48 46.5031 8.54C46.6431 9.36 46.8931 9.95 47.2531 10.31C47.6131 10.67 48.1031 10.85 48.7231 10.85C49.0631 10.85 49.4431 10.75 49.8631 10.55C50.3031 10.35 50.7031 10.09 51.0631 9.77ZM50.0731 -11.23C49.6131 -11.23 49.0931 -10.4 48.5131 -8.74C47.9331 -7.08 47.4231 -5.02 46.9831 -2.56C46.5431 -0.100001 46.3031 2.26 46.2631 4.52C47.6831 2.18 48.8131 -0.160001 49.6531 -2.5C50.4931 -4.86 50.9131 -7.01 50.9131 -8.95C50.9131 -10.47 50.6331 -11.23 50.0731 -11.23Z" fill="#FA6C48"/>
<path d="M66.8975 14.15C66.1575 14.15 65.6275 13.99 65.3075 13.67C64.9875 13.33 64.8275 12.7 64.8275 11.78C64.8275 11.16 64.8875 10.37 65.0075 9.41C65.1475 8.43 65.3675 7.09 65.6675 5.39C66.1875 2.25 66.5975 -0.470001 66.8975 -2.77C67.0775 -4.21 67.1675 -5.41 67.1675 -6.37C67.1675 -7.27 66.8375 -7.72 66.1775 -7.72C65.6575 -7.72 65.0275 -7.45 64.2875 -6.91C63.5675 -6.39 62.7675 -5.55 61.8875 -4.39C61.6075 -4.01 61.2975 -3.82 60.9575 -3.82C60.6775 -3.82 60.4275 -3.95 60.2075 -4.21C60.0075 -4.49 59.9075 -4.8 59.9075 -5.14C59.9075 -5.46 59.9675 -5.78 60.0875 -6.1C60.2275 -6.44 60.4475 -6.82 60.7475 -7.24C61.7075 -8.58 62.7775 -9.61 63.9575 -10.33C65.1375 -11.07 66.3175 -11.44 67.4975 -11.44C68.5975 -11.44 69.4375 -11.09 70.0175 -10.39C70.6175 -9.69 70.9175 -8.67 70.9175 -7.33C70.9175 -6.79 70.8675 -6.15 70.7675 -5.41C70.6675 -4.69 70.5775 -4.1 70.4975 -3.64C70.4175 -3.18 70.3575 -2.86 70.3175 -2.68C71.4575 -5.94 72.7375 -8.21 74.1575 -9.49C75.5775 -10.79 77.1375 -11.44 78.8375 -11.44C80.1375 -11.44 81.1575 -10.98 81.8975 -10.06C82.6575 -9.14 83.0375 -7.84 83.0375 -6.16C83.0375 -5.5 82.9475 -4.68 82.7675 -3.7C83.7675 -6.46 84.9375 -8.44 86.2775 -9.64C87.6175 -10.84 89.1575 -11.44 90.8975 -11.44C92.2975 -11.44 93.3675 -10.99 94.1075 -10.09C94.8675 -9.19 95.2475 -7.93 95.2475 -6.31C95.2475 -5.43 95.1175 -4.36 94.8575 -3.1L93.0275 5.48C92.8275 6.48 92.7275 7.34 92.7275 8.06C92.7275 8.9 92.9175 9.53 93.2975 9.95C93.6975 10.37 94.2475 10.58 94.9475 10.58C95.6075 10.58 96.2475 10.36 96.8675 9.92C97.5075 9.48 98.2575 8.75 99.1175 7.73C99.3575 7.45 99.6275 7.31 99.9275 7.31C100.188 7.31 100.388 7.43 100.528 7.67C100.688 7.91 100.768 8.24 100.768 8.66C100.768 9.44 100.578 10.06 100.198 10.52C99.1575 11.78 98.1275 12.7 97.1075 13.28C96.0875 13.86 95.0175 14.15 93.8975 14.15C92.1975 14.15 90.8675 13.65 89.9075 12.65C88.9475 11.63 88.4675 10.27 88.4675 8.57C88.4675 7.39 88.7075 5.68 89.1875 3.44L90.3875 -2.05C90.4275 -2.23 90.4975 -2.55 90.5975 -3.01C90.6975 -3.47 90.7775 -3.9 90.8375 -4.3C90.8975 -4.72 90.9275 -5.13 90.9275 -5.53C90.9275 -6.23 90.7875 -6.75 90.5075 -7.09C90.2475 -7.45 89.8675 -7.63 89.3675 -7.63C88.4275 -7.63 87.4375 -7.02 86.3975 -5.8C85.3775 -4.6 84.3975 -2.6 83.4575 0.2C82.5375 3 81.7875 6.64 81.2075 11.12C81.0675 12.32 80.8175 13.13 80.4575 13.55C80.1175 13.95 79.5575 14.15 78.7775 14.15C78.0975 14.15 77.5975 13.99 77.2775 13.67C76.9775 13.35 76.8275 12.75 76.8275 11.87C76.8275 11.05 76.9375 9.98 77.1575 8.66C77.3775 7.32 77.6575 5.75 77.9975 3.95C78.9175 -0.890001 79.3775 -4.01 79.3775 -5.41C79.3775 -6.17 79.2275 -6.73 78.9275 -7.09C78.6475 -7.45 78.2175 -7.63 77.6375 -7.63C76.6575 -7.63 75.6475 -7.07 74.6075 -5.95C73.5675 -4.85 72.5475 -2.88 71.5475 -0.0400007C70.5675 2.78 69.7475 6.6 69.0875 11.42C68.9475 12.44 68.7375 13.15 68.4575 13.55C68.1975 13.95 67.6775 14.15 66.8975 14.15ZM102.28 -1.96C101.44 -1.96 100.81 -2.15 100.39 -2.53C99.9702 -2.93 99.7602 -3.48 99.7602 -4.18C99.7602 -4.88 100.03 -5.46 100.57 -5.92C101.13 -6.4 101.82 -6.64 102.64 -6.64C103.38 -6.64 103.98 -6.46 104.44 -6.1C104.9 -5.74 105.13 -5.23 105.13 -4.57C105.13 -3.77 104.87 -3.13 104.35 -2.65C103.83 -2.19 103.14 -1.96 102.28 -1.96ZM102.04 14.15C100.74 14.15 99.7902 13.69 99.1902 12.77C98.6102 11.85 98.3202 10.63 98.3202 9.11C98.3202 8.21 98.4302 7.06 98.6502 5.66C98.8902 4.24 99.1902 2.92 99.5502 1.7C99.7302 1.06 99.9702 0.619999 100.27 0.379999C100.57 0.139999 101.05 0.0199994 101.71 0.0199994C102.73 0.0199994 103.24 0.359999 103.24 1.04C103.24 1.54 103.05 2.7 102.67 4.52C102.19 6.72 101.95 8.21 101.95 8.99C101.95 9.59 102.03 10.05 102.19 10.37C102.35 10.69 102.62 10.85 103 10.85C103.36 10.85 103.81 10.6 104.35 10.1C104.89 9.6 105.61 8.81 106.51 7.73C106.75 7.45 107.02 7.31 107.32 7.31C107.58 7.31 107.78 7.43 107.92 7.67C108.08 7.91 108.16 8.24 108.16 8.66C108.16 9.46 107.97 10.08 107.59 10.52C105.61 12.94 103.76 14.15 102.04 14.15ZM117.103 7.31C117.363 7.31 117.563 7.43 117.703 7.67C117.863 7.91 117.943 8.24 117.943 8.66C117.943 9.46 117.753 10.08 117.373 10.52C116.513 11.58 115.573 12.45 114.553 13.13C113.553 13.81 112.413 14.15 111.133 14.15C109.373 14.15 108.063 13.35 107.203 11.75C106.363 10.15 105.943 8.08 105.943 5.54C105.943 3.1 106.253 0.32 106.873 -2.8C107.513 -5.92 108.443 -8.6 109.663 -10.84C110.903 -13.08 112.373 -14.2 114.073 -14.2C115.033 -14.2 115.783 -13.75 116.323 -12.85C116.883 -11.97 117.163 -10.7 117.163 -9.04C117.163 -6.66 116.503 -3.9 115.183 -0.76C113.863 2.38 112.073 5.49 109.813 8.57C109.953 9.39 110.183 9.98 110.503 10.34C110.823 10.68 111.243 10.85 111.763 10.85C112.583 10.85 113.303 10.62 113.923 10.16C114.543 9.68 115.333 8.87 116.293 7.73C116.533 7.45 116.803 7.31 117.103 7.31ZM113.413 -11.23C112.953 -11.23 112.433 -10.4 111.853 -8.74C111.273 -7.08 110.763 -5.02 110.323 -2.56C109.883 -0.100001 109.643 2.26 109.603 4.52C111.023 2.18 112.153 -0.160001 112.993 -2.5C113.833 -4.86 114.253 -7.01 114.253 -8.95C114.253 -10.47 113.973 -11.23 113.413 -11.23ZM124.188 9.77C124.408 9.57 124.628 9.47 124.848 9.47C125.088 9.47 125.278 9.61 125.418 9.89C125.578 10.15 125.658 10.47 125.658 10.85C125.658 11.69 125.358 12.36 124.758 12.86C123.718 13.72 122.538 14.15 121.218 14.15C119.318 14.15 117.928 13.36 117.048 11.78C116.168 10.18 115.728 8.1 115.728 5.54C115.728 3.1 116.038 0.32 116.658 -2.8C117.298 -5.92 118.228 -8.6 119.448 -10.84C120.688 -13.08 122.158 -14.2 123.858 -14.2C124.818 -14.2 125.568 -13.75 126.108 -12.85C126.668 -11.97 126.948 -10.7 126.948 -9.04C126.948 -6.66 126.288 -3.9 124.968 -0.76C123.668 2.38 121.888 5.48 119.628 8.54C119.768 9.36 120.018 9.95 120.378 10.31C120.738 10.67 121.228 10.85 121.848 10.85C122.188 10.85 122.568 10.75 122.988 10.55C123.428 10.35 123.828 10.09 124.188 9.77ZM123.198 -11.23C122.738 -11.23 122.218 -10.4 121.638 -8.74C121.058 -7.08 120.548 -5.02 120.108 -2.56C119.668 -0.100001 119.428 2.26 119.388 4.52C120.808 2.18 121.938 -0.160001 122.778 -2.5C123.618 -4.86 124.038 -7.01 124.038 -8.95C124.038 -10.47 123.758 -11.23 123.198 -11.23Z" fill="#140735"/>
</svg>
